<svg width="40" height="40" viewBox="0 0 40 40" fill="none" xmlns="http://www.w3.org/2000/svg">
<path fill-rule="evenodd" clip-rule="evenodd" d="M11.1111 0C4.97462 0 0 4.97462 0 11.1111V28.8889C0 35.0254 4.97462 40 11.1111 40H28.8889C35.0254 40 40 35.0254 40 28.8889V11.1111C40 4.97462 35.0254 0 28.8889 0H11.1111ZM7.9 14.1333H18.0389C18.2082 14.122 18.378 14.1455 18.5378 14.2025C18.6977 14.2595 18.8441 14.3487 18.968 14.4646C19.0919 14.5805 19.1907 14.7206 19.2583 14.8762C19.3258 15.0319 19.3607 15.1998 19.3607 15.3694C19.3607 15.5391 19.3258 15.707 19.2583 15.8626C19.1907 16.0183 19.0919 16.1584 18.968 16.2743C18.8441 16.3902 18.6977 16.4794 18.5378 16.5364C18.378 16.5934 18.2082 16.6169 18.0389 16.6056H14.2556C14.0863 16.5942 13.9164 16.6177 13.7566 16.6747C13.5968 16.7317 13.4504 16.8209 13.3264 16.9368C13.2025 17.0527 13.1037 17.1928 13.0362 17.3485C12.9686 17.5041 12.9338 17.672 12.9338 17.8417C12.9338 18.0113 12.9686 18.1792 13.0362 18.3349C13.1037 18.4905 13.2025 18.6306 13.3264 18.7465C13.4504 18.8624 13.5968 18.9516 13.7566 19.0086C13.9164 19.0656 14.0863 19.0891 14.2556 19.0778H32.1C32.4135 19.0567 32.7073 18.9174 32.922 18.6879C33.1366 18.4584 33.256 18.1559 33.256 17.8417C33.256 17.5274 33.1366 17.225 32.922 16.9955C32.7073 16.766 32.4135 16.6266 32.1 16.6056H24.0111C23.8418 16.6169 23.672 16.5934 23.5122 16.5364C23.3523 16.4794 23.2059 16.3902 23.082 16.2743C22.9581 16.1584 22.8593 16.0183 22.7917 15.8626C22.7242 15.707 22.6893 15.5391 22.6893 15.3694C22.6893 15.1998 22.7242 15.0319 22.7917 14.8762C22.8593 14.7206 22.9581 14.5805 23.082 14.4646C23.2059 14.3487 23.3523 14.2595 23.5122 14.2025C23.672 14.1455 23.8418 14.122 24.0111 14.1333H25.7444C26.0715 14.1333 26.3853 14.0034 26.6165 13.7721C26.8478 13.5408 26.9778 13.2271 26.9778 12.9C26.9778 12.5729 26.8478 12.2592 26.6165 12.0279C26.3853 11.7966 26.0715 11.6667 25.7444 11.6667H7.9C7.5729 11.6667 7.2592 11.7966 7.0279 12.0279C6.79661 12.2592 6.66667 12.5729 6.66667 12.9C6.66667 13.2271 6.79661 13.5408 7.0279 13.7721C7.2592 14.0034 7.5729 14.1333 7.9 14.1333ZM32.1 26.2222H24.0111C23.8418 26.2336 23.672 26.21 23.5122 26.1531C23.3523 26.0961 23.2059 26.0069 23.082 25.891C22.9581 25.7751 22.8593 25.635 22.7917 25.4793C22.7242 25.3237 22.6893 25.1558 22.6893 24.9861C22.6893 24.8164 22.7242 24.6486 22.7917 24.4929C22.8593 24.3373 22.9581 24.1971 23.082 24.0812C23.2059 23.9653 23.3523 23.8761 23.5122 23.8192C23.672 23.7622 23.8418 23.7386 24.0111 23.75H25.7444C25.9137 23.7614 26.0836 23.7378 26.2434 23.6808C26.4032 23.6239 26.5496 23.5347 26.6736 23.4188C26.7975 23.3029 26.8963 23.1627 26.9639 23.0071C27.0314 22.8514 27.0663 22.6836 27.0663 22.5139C27.0663 22.3442 27.0314 22.1763 26.9639 22.0207C26.8963 21.865 26.7975 21.7249 26.6736 21.609C26.5496 21.4931 26.4032 21.4039 26.2434 21.3469C26.0836 21.29 25.9137 21.2664 25.7444 21.2778H7.9C7.58649 21.2988 7.29267 21.4382 7.07805 21.6677C6.86343 21.8972 6.74403 22.1997 6.74403 22.5139C6.74403 22.8281 6.86343 23.1306 7.07805 23.3601C7.29267 23.5896 7.58649 23.729 7.9 23.75H18.0389C18.2082 23.7386 18.378 23.7622 18.5378 23.8192C18.6977 23.8761 18.8441 23.9653 18.968 24.0812C19.0919 24.1971 19.1907 24.3373 19.2583 24.4929C19.3258 24.6486 19.3607 24.8164 19.3607 24.9861C19.3607 25.1558 19.3258 25.3237 19.2583 25.4793C19.1907 25.635 19.0919 25.7751 18.968 25.891C18.8441 26.0069 18.6977 26.0961 18.5378 26.1531C18.378 26.21 18.2082 26.2336 18.0389 26.2222H14.2556C13.9285 26.2222 13.6148 26.3522 13.3835 26.5835C13.1522 26.8148 13.0222 27.1285 13.0222 27.4556C13.0222 27.7827 13.1522 28.0964 13.3835 28.3277C13.6148 28.559 13.9285 28.6889 14.2556 28.6889H32.1C32.4271 28.6889 32.7408 28.559 32.9721 28.3277C33.2034 28.0964 33.3333 27.7827 33.3333 27.4556C33.3333 27.1285 33.2034 26.8148 32.9721 26.5835C32.7408 26.3522 32.4271 26.2222 32.1 26.2222Z" fill="url(#paint0_linear_28_26)"/>
<defs>
<linearGradient id="paint0_linear_28_26" x1="40" y1="40" x2="-2.38419e-06" y2="2.38419e-06" gradientUnits="userSpaceOnUse">
<stop stop-color="#0094FF"/>
<stop offset="1" stop-color="#00D8FC"/>
</linearGradient>
</defs>
</svg>
