<svg width="1028" height="208" viewBox="0 0 1028 208" fill="none" xmlns="http://www.w3.org/2000/svg">
<path d="M276.64 160L248 48H272.8L290.08 115.84L307.36 48H329.44L346.72 115.84L364 48H388.8L360.32 160H333.28L318.4 101.92L303.68 160H276.64ZM396.088 80H420.088V160H396.088V80ZM408.248 71.68C404.781 71.68 401.874 70.5333 399.528 68.24C397.181 65.9467 396.008 63.0933 396.008 59.68C396.008 56.32 397.181 53.4933 399.528 51.2C401.874 48.8533 404.754 47.68 408.168 47.68C411.528 47.68 414.354 48.8533 416.648 51.2C418.994 53.4933 420.168 56.32 420.168 59.68C420.168 63.0933 419.021 65.9467 416.728 68.24C414.488 70.5333 411.661 71.68 408.248 71.68ZM510.195 108.88V160H486.195V115.6C486.195 113.093 485.582 110.827 484.355 108.8C483.128 106.72 481.502 105.093 479.475 103.92C477.448 102.693 475.182 102.08 472.675 102.08C470.168 102.08 467.875 102.693 465.795 103.92C463.768 105.093 462.142 106.72 460.915 108.8C459.742 110.827 459.155 113.093 459.155 115.6V160H435.155L435.075 80H459.075L459.155 85.04C461.822 82.7467 464.862 80.96 468.275 79.68C471.688 78.4 475.288 77.76 479.075 77.76C484.835 77.76 490.062 79.1733 494.755 82C499.448 84.7733 503.182 88.5067 505.955 93.2C508.782 97.8933 510.195 103.12 510.195 108.88ZM579.006 40H603.006V160H579.006V152.64C576.553 155.413 573.62 157.68 570.206 159.44C566.846 161.2 563.006 162.08 558.686 162.08C552.873 162.08 547.433 160.987 542.366 158.8C537.3 156.613 532.82 153.6 528.926 149.76C525.086 145.867 522.073 141.387 519.886 136.32C517.7 131.253 516.606 125.813 516.606 120C516.606 114.187 517.7 108.747 519.886 103.68C522.073 98.6133 525.086 94.16 528.926 90.32C532.82 86.4267 537.3 83.3867 542.366 81.2C547.433 79.0133 552.873 77.92 558.686 77.92C563.006 77.92 566.846 78.8 570.206 80.56C573.62 82.2667 576.553 84.5333 579.006 87.36V40ZM559.006 139.04C562.313 139.04 565.326 138.187 568.046 136.48C570.766 134.773 572.926 132.48 574.526 129.6C576.126 126.72 576.926 123.52 576.926 120C576.926 116.48 576.126 113.28 574.526 110.4C572.926 107.52 570.766 105.227 568.046 103.52C565.326 101.813 562.313 100.96 559.006 100.96C555.7 100.96 552.686 101.813 549.966 103.52C547.3 105.227 545.166 107.52 543.566 110.4C542.02 113.28 541.246 116.48 541.246 120C541.246 123.52 542.046 126.72 543.646 129.6C545.246 132.48 547.38 134.773 550.046 136.48C552.766 138.187 555.753 139.04 559.006 139.04ZM666.68 80H692.28L648.44 200H623L637.4 160L608.6 80H634.84L649.4 127.2L666.68 80ZM699.381 160V48H741.781C747.915 48 753.461 49.28 758.421 51.84C763.381 54.3467 767.301 57.92 770.181 62.56C773.115 67.2 774.581 72.64 774.581 78.88C774.581 81.2267 774.288 83.7067 773.701 86.32C773.115 88.88 772.075 91.28 770.581 93.52C769.088 95.76 766.955 97.52 764.181 98.8C767.755 99.6533 770.581 101.253 772.661 103.6C774.741 105.947 776.288 108.667 777.301 111.76C778.368 114.8 779.061 117.893 779.381 121.04C779.701 124.133 779.861 126.933 779.861 129.44C779.861 135.093 778.341 140.24 775.301 144.88C772.261 149.467 768.181 153.147 763.061 155.92C757.941 158.64 752.288 160 746.101 160H699.381ZM723.381 139.68H743.541C746.315 139.68 748.821 139.04 751.061 137.76C753.355 136.427 755.168 134.613 756.501 132.32C757.888 130.027 758.581 127.413 758.581 124.48C758.581 122.027 757.888 119.707 756.501 117.52C755.168 115.28 753.355 113.467 751.061 112.08C748.821 110.693 746.315 110 743.541 110H723.381V139.68ZM723.381 90H738.901C742.101 90 744.848 88.9333 747.141 86.8C749.435 84.6667 750.581 81.9733 750.581 78.72C750.581 75.4133 749.435 72.88 747.141 71.12C744.848 69.36 742.101 68.48 738.901 68.48H723.381V90ZM845.34 80H869.34V160H845.26L844.14 152.8C842.167 155.573 839.66 157.813 836.62 159.52C833.633 161.227 830.14 162.08 826.14 162.08C820.167 162.08 814.567 160.96 809.34 158.72C804.167 156.48 799.607 153.387 795.66 149.44C791.713 145.44 788.62 140.853 786.38 135.68C784.193 130.453 783.1 124.853 783.1 118.88C783.1 113.173 784.14 107.84 786.22 102.88C788.3 97.92 791.207 93.5733 794.94 89.84C798.727 86.0533 803.073 83.0933 807.98 80.96C812.94 78.8267 818.247 77.76 823.9 77.76C828.487 77.76 832.647 78.72 836.38 80.64C840.167 82.5067 843.527 84.8533 846.46 87.68L845.34 80ZM825.5 139.04C828.807 139.04 831.82 138.187 834.54 136.48C837.26 134.773 839.42 132.48 841.02 129.6C842.62 126.72 843.42 123.52 843.42 120C843.42 116.48 842.62 113.28 841.02 110.4C839.42 107.52 837.26 105.227 834.54 103.52C831.82 101.813 828.807 100.96 825.5 100.96C822.193 100.96 819.18 101.813 816.46 103.52C813.793 105.227 811.66 107.52 810.06 110.4C808.513 113.28 807.74 116.48 807.74 120C807.74 123.52 808.54 126.72 810.14 129.6C811.74 132.48 813.873 134.773 816.54 136.48C819.26 138.187 822.247 139.04 825.5 139.04ZM905.24 161.44C901.187 161.067 897.293 160.187 893.56 158.8C889.827 157.413 886.493 155.52 883.56 153.12C880.627 150.72 878.307 147.787 876.6 144.32L896.76 135.68C897.293 136.267 898.04 137.013 899 137.92C899.96 138.773 901.16 139.547 902.6 140.24C904.093 140.933 905.88 141.28 907.96 141.28C909.347 141.28 910.68 141.147 911.96 140.88C913.293 140.56 914.36 140.027 915.16 139.28C916.013 138.533 916.44 137.493 916.44 136.16C916.44 134.667 915.88 133.547 914.76 132.8C913.693 132 912.387 131.44 910.84 131.12C909.293 130.747 907.853 130.453 906.52 130.24C901.773 129.493 897.213 128 892.84 125.76C888.52 123.467 884.973 120.507 882.2 116.88C879.427 113.2 878.04 108.907 878.04 104C878.04 98.5067 879.453 93.76 882.28 89.76C885.107 85.76 888.787 82.6933 893.32 80.56C897.907 78.3733 902.84 77.28 908.12 77.28C914.36 77.28 920.12 78.56 925.4 81.12C930.733 83.68 935.107 87.36 938.52 92.16L919.64 103.36C919 102.56 918.2 101.76 917.24 100.96C916.333 100.107 915.267 99.3867 914.04 98.8C912.867 98.16 911.587 97.76 910.2 97.6C908.333 97.44 906.653 97.52 905.16 97.84C903.72 98.1067 902.573 98.6933 901.72 99.6C900.867 100.453 900.44 101.707 900.44 103.36C900.44 104.907 901.187 106.027 902.68 106.72C904.173 107.413 905.853 107.92 907.72 108.24C909.587 108.56 911.107 108.907 912.28 109.28C916.867 110.773 921.187 112.72 925.24 115.12C929.293 117.52 932.547 120.427 935 123.84C937.507 127.253 938.68 131.253 938.52 135.84C938.52 141.173 936.92 145.867 933.72 149.92C930.52 153.973 926.387 157.04 921.32 159.12C916.253 161.2 910.893 161.973 905.24 161.44ZM982.325 162.08C974.965 162.08 968.245 160.187 962.165 156.4C956.138 152.613 951.312 147.52 947.685 141.12C944.112 134.72 942.325 127.653 942.325 119.92C942.325 114.107 943.365 108.667 945.445 103.6C947.525 98.48 950.378 94 954.005 90.16C957.685 86.2667 961.952 83.2267 966.805 81.04C971.658 78.8533 976.832 77.76 982.325 77.76C988.725 77.76 994.565 79.1733 999.845 82C1005.18 84.7733 1009.66 88.56 1013.29 93.36C1016.97 98.1067 1019.58 103.467 1021.13 109.44C1022.67 115.413 1022.83 121.573 1021.61 127.92H968.245C968.992 129.787 969.978 131.493 971.205 133.04C972.485 134.533 974.032 135.733 975.845 136.64C977.712 137.547 979.872 138.027 982.325 138.08C984.672 138.133 986.832 137.627 988.805 136.56C990.832 135.493 992.592 134.053 994.085 132.24L1018.57 137.92C1015.31 145.013 1010.46 150.827 1004.01 155.36C997.552 159.84 990.325 162.08 982.325 162.08ZM967.365 110.32H997.365C996.618 108.027 995.498 106 994.005 104.24C992.512 102.48 990.752 101.093 988.725 100.08C986.752 99.0667 984.618 98.56 982.325 98.56C980.085 98.56 977.952 99.0667 975.925 100.08C973.952 101.093 972.218 102.48 970.725 104.24C969.285 106 968.165 108.027 967.365 110.32Z" fill="#003551"/>
<path fill-rule="evenodd" clip-rule="evenodd" d="M57.7778 0C25.868 0 0 25.868 0 57.7778V150.222C0 182.132 25.868 208 57.7778 208H150.222C182.132 208 208 182.132 208 150.222V57.7778C208 25.868 182.132 0 150.222 0H57.7778ZM41.08 73.4933H93.8022C94.6826 73.4343 95.5657 73.5567 96.3968 73.853C97.2278 74.1493 97.9892 74.6131 98.6337 75.2158C99.2781 75.8185 99.7919 76.5471 100.143 77.3565C100.494 78.1659 100.676 79.0388 100.676 79.9211C100.676 80.8034 100.494 81.6763 100.143 82.4857C99.7919 83.2951 99.2781 84.0238 98.6337 84.6264C97.9892 85.2291 97.2278 85.6929 96.3968 85.9892C95.5657 86.2855 94.6826 86.4079 93.8022 86.3489H74.1289C73.2485 86.2898 72.3654 86.4123 71.5344 86.7085C70.7033 87.0048 69.9419 87.4687 69.2975 88.0714C68.653 88.674 68.1393 89.4026 67.788 90.212C67.4368 91.0214 67.2555 91.8943 67.2555 92.7767C67.2555 93.659 67.4368 94.5319 67.788 95.3413C68.1393 96.1507 68.653 96.8793 69.2975 97.482C69.9419 98.0846 70.7033 98.5485 71.5344 98.8448C72.3654 99.1411 73.2485 99.2635 74.1289 99.2044H166.92C168.55 99.0951 170.078 98.3703 171.194 97.1769C172.31 95.9835 172.931 94.4106 172.931 92.7767C172.931 91.1427 172.31 89.5698 171.194 88.3764C170.078 87.183 168.55 86.4582 166.92 86.3489H124.858C123.977 86.4079 123.094 86.2855 122.263 85.9892C121.432 85.6929 120.671 85.2291 120.026 84.6264C119.382 84.0238 118.868 83.2951 118.517 82.4857C118.166 81.6763 117.984 80.8034 117.984 79.9211C117.984 79.0388 118.166 78.1659 118.517 77.3565C118.868 76.5471 119.382 75.8185 120.026 75.2158C120.671 74.6131 121.432 74.1493 122.263 73.853C123.094 73.5567 123.977 73.4343 124.858 73.4933H133.871C135.572 73.4933 137.203 72.8176 138.406 71.6149C139.609 70.4122 140.284 68.7809 140.284 67.08C140.284 65.3791 139.609 63.7478 138.406 62.5451C137.203 61.3424 135.572 60.6667 133.871 60.6667H41.08C39.3791 60.6667 37.7478 61.3424 36.5451 62.5451C35.3424 63.7478 34.6667 65.3791 34.6667 67.08C34.6667 68.7809 35.3424 70.4122 36.5451 71.6149C37.7478 72.8176 39.3791 73.4933 41.08 73.4933ZM166.92 136.356H124.858C123.977 136.415 123.094 136.292 122.263 135.996C121.432 135.7 120.671 135.236 120.026 134.633C119.382 134.03 118.868 133.302 118.517 132.492C118.166 131.683 117.984 130.81 117.984 129.928C117.984 129.045 118.166 128.173 118.517 127.363C118.868 126.554 119.382 125.825 120.026 125.222C120.671 124.62 121.432 124.156 122.263 123.86C123.094 123.563 123.977 123.441 124.858 123.5H133.871C134.751 123.559 135.635 123.437 136.466 123.14C137.297 122.844 138.058 122.38 138.703 121.778C139.347 121.175 139.861 120.446 140.212 119.637C140.563 118.827 140.745 117.955 140.745 117.072C140.745 116.19 140.563 115.317 140.212 114.508C139.861 113.698 139.347 112.97 138.703 112.367C138.058 111.764 137.297 111.3 136.466 111.004C135.635 110.708 134.751 110.585 133.871 110.644H41.08C39.4497 110.754 37.9219 111.479 36.8059 112.672C35.6898 113.865 35.0689 115.438 35.0689 117.072C35.0689 118.706 35.6898 120.279 36.8059 121.472C37.9219 122.666 39.4497 123.391 41.08 123.5H93.8022C94.6826 123.441 95.5657 123.563 96.3968 123.86C97.2279 124.156 97.9892 124.62 98.6337 125.222C99.2781 125.825 99.7919 126.554 100.143 127.363C100.494 128.173 100.676 129.045 100.676 129.928C100.676 130.81 100.494 131.683 100.143 132.492C99.7919 133.302 99.2781 134.03 98.6337 134.633C97.9892 135.236 97.2279 135.7 96.3968 135.996C95.5657 136.292 94.6826 136.415 93.8022 136.356H74.1289C72.428 136.356 70.7967 137.031 69.594 138.234C68.3913 139.437 67.7156 141.068 67.7156 142.769C67.7156 144.47 68.3913 146.101 69.594 147.304C70.7967 148.507 72.428 149.182 74.1289 149.182H166.92C168.621 149.182 170.252 148.507 171.455 147.304C172.658 146.101 173.333 144.47 173.333 142.769C173.333 141.068 172.658 139.437 171.455 138.234C170.252 137.031 168.621 136.356 166.92 136.356Z" fill="url(#paint0_linear_14_13)"/>
<defs>
<linearGradient id="paint0_linear_14_13" x1="208" y1="208" x2="-1.23978e-05" y2="1.23978e-05" gradientUnits="userSpaceOnUse">
<stop stop-color="#0094FF"/>
<stop offset="1" stop-color="#00D8FC"/>
</linearGradient>
</defs>
</svg>
